<?xml version="1.0" encoding="UTF-8" standalone="no"?>
<!DOCTYPE svg PUBLIC "-//W3C//DTD SVG 1.1//EN" "http://www.w3.org/Graphics/SVG/1.1/DTD/svg11.dtd">
<svg width="100%" height="100%" viewBox="0 0 13576 4231" version="1.1" xmlns="http://www.w3.org/2000/svg" xmlns:xlink="http://www.w3.org/1999/xlink" xml:space="preserve" xmlns:serif="http://www.serif.com/" style="fill-rule:evenodd;clip-rule:evenodd;stroke-linejoin:round;stroke-miterlimit:2;">
    <style>
        #c-shape, #cvb-text { fill: black }
        @media (prefers-color-scheme: dark) {
            /* dark theme styles */
            #c-shape { fill: #343a40 }
            #cvb-text { fill: white }
        }
    </style>
    <g transform="matrix(1,0,0,1,-3282,0)">
        <g id="Artboard3" transform="matrix(1.07479,0,0,1,-1260.92,3030.01)">
            <rect x="4227.18" y="-3030.01" width="12630.4" height="4230.01" style="fill:none;"/>
            <g transform="matrix(1.11618,0,0,1.11618,-1224.78,231.743)">
                <g transform="matrix(2.581,0,0,2.90248,9251.88,-10019.5)">
                    <g id="c-shape" transform="matrix(4.16667,0,0,3.98226,676.015,2879.66)">
                        <path d="M0,29.118C-7.085,37.409 -15.425,50.013 -34.195,50.013C-51.585,50.013 -69.318,37.043 -69.701,13.254C-67.956,-8.861 -51.063,-20.949 -34.246,-20.949C-13.961,-20.949 -5.837,-6.767 1.02,2.357L16.649,-8.668C22.939,-2.53 32.036,-1.137 39.51,-4.294C45.56,-6.849 50.029,-11.903 51.771,-18.16C53.248,-23.466 52.617,-29.019 50.066,-33.788L64.774,-45.809C39.54,-79.352 10.18,-100.79 -34.296,-100.79C-100.397,-100.79 -150.587,-45.293 -149.591,14.444C-151.128,72.049 -101.871,129.901 -34.281,129.908L-34.277,129.908C11.205,129.908 39.823,107.501 65.139,74.546L0,29.118Z" style="fill-rule:nonzero;"/>
                    </g>
                    <g transform="matrix(809.512,0,0,-773.685,755.345,2796.95)">
                        <path d="M-0.807,-0.168L-0.731,-0.163C-0.733,-0.157 -0.734,-0.15 -0.734,-0.143C-0.734,-0.104 -0.703,-0.072 -0.663,-0.072C-0.658,-0.072 -0.652,-0.072 -0.647,-0.074C-0.621,-0.08 -0.601,-0.1 -0.594,-0.125C-0.591,-0.138 -0.592,-0.15 -0.595,-0.162L-0.517,-0.163C-0.509,-0.069 -0.448,0.016 -0.353,0.049L-0.385,0.153C-0.387,0.156 -0.383,0.16 -0.379,0.158C-0.365,0.151 -0.347,0.15 -0.332,0.16C-0.317,0.169 -0.308,0.187 -0.31,0.204C-0.312,0.236 -0.344,0.255 -0.372,0.246C-0.385,0.242 -0.395,0.233 -0.401,0.221C-0.402,0.218 -0.407,0.218 -0.408,0.222L-0.448,0.322C-0.663,0.248 -0.801,0.049 -0.807,-0.168Z" style="fill:url(#_Radial1);fill-rule:nonzero;"/>
                    </g>
                    <g transform="matrix(809.511,0,0,-773.684,755.344,2672.37)">
                        <path d="M-0.425,0.168L-0.398,0.098C-0.392,0.102 -0.386,0.105 -0.38,0.107C-0.342,0.119 -0.302,0.099 -0.29,0.061C-0.288,0.056 -0.287,0.051 -0.287,0.045C-0.284,0.019 -0.297,-0.007 -0.319,-0.021C-0.33,-0.027 -0.342,-0.031 -0.354,-0.032L-0.331,-0.106C-0.239,-0.084 -0.139,-0.116 -0.08,-0.196L0.01,-0.133C0.013,-0.131 0.017,-0.134 0.016,-0.137C0.014,-0.153 0.019,-0.17 0.033,-0.182C0.046,-0.194 0.066,-0.196 0.082,-0.19C0.111,-0.177 0.12,-0.141 0.102,-0.117C0.094,-0.106 0.083,-0.1 0.07,-0.098C0.066,-0.097 0.065,-0.093 0.068,-0.09L0.152,-0.022C0.047,0.116 -0.113,0.19 -0.275,0.19C-0.325,0.19 -0.376,0.183 -0.425,0.168Z" style="fill:url(#_Radial2);fill-rule:nonzero;"/>
                    </g>
                    <g transform="matrix(809.511,0,0,-773.684,755.344,3765.74)">
                        <path d="M-0.345,0.838L-0.38,0.734C-0.382,0.731 -0.387,0.73 -0.388,0.734C-0.396,0.748 -0.41,0.759 -0.428,0.76C-0.446,0.761 -0.463,0.753 -0.472,0.738C-0.489,0.71 -0.475,0.676 -0.446,0.667C-0.433,0.662 -0.42,0.664 -0.409,0.67C-0.405,0.672 -0.402,0.669 -0.403,0.665L-0.43,0.561C-0.212,0.494 0.017,0.575 0.149,0.746L0.085,0.787C0.083,0.78 0.08,0.774 0.076,0.769C0.053,0.737 0.008,0.73 -0.024,0.753C-0.028,0.756 -0.032,0.76 -0.036,0.764C-0.053,0.784 -0.058,0.812 -0.048,0.837C-0.043,0.848 -0.036,0.858 -0.026,0.866L-0.089,0.912C-0.15,0.841 -0.25,0.808 -0.345,0.838Z" style="fill:url(#_Radial3);fill-rule:nonzero;"/>
                    </g>
                    <g transform="matrix(809.509,0,0,-773.683,755.343,3519.09)">
                        <path d="M-0.711,0.79C-0.711,0.777 -0.706,0.765 -0.696,0.756C-0.694,0.753 -0.696,0.749 -0.699,0.749L-0.807,0.742C-0.803,0.515 -0.656,0.322 -0.452,0.249L-0.433,0.322C-0.44,0.323 -0.446,0.324 -0.453,0.326C-0.49,0.338 -0.511,0.378 -0.499,0.415C-0.497,0.421 -0.495,0.426 -0.492,0.431C-0.478,0.453 -0.453,0.466 -0.427,0.465C-0.414,0.464 -0.402,0.46 -0.392,0.453L-0.367,0.527C-0.454,0.563 -0.516,0.648 -0.517,0.748L-0.627,0.749C-0.63,0.749 -0.632,0.754 -0.63,0.756C-0.618,0.768 -0.612,0.784 -0.617,0.803C-0.621,0.819 -0.635,0.833 -0.652,0.837C-0.656,0.838 -0.66,0.838 -0.663,0.838C-0.69,0.838 -0.711,0.817 -0.711,0.79Z" style="fill:url(#_Radial4);fill-rule:nonzero;"/>
                    </g>
                </g>
                <g id="cvb-text" transform="matrix(8.75887,0,0,9.41392,-44123.8,-32579.2)">
                    <path d="M5849.23,3542.7C5842.88,3542.7 5837.84,3540.97 5834.11,3537.52C5830.39,3534.07 5828.52,3528.93 5828.52,3522.1L5828.52,3488.35C5828.52,3481.59 5830.51,3476.45 5834.47,3472.93C5838.44,3469.41 5843.67,3467.65 5850.16,3467.65C5856.44,3467.65 5861.42,3469.44 5865.11,3473.03C5868.81,3476.62 5870.65,3481.97 5870.65,3489.08L5870.65,3491.77L5855.85,3491.77L5855.85,3489.18C5855.85,3486.42 5855.28,3484.37 5854.14,3483.02C5853,3481.68 5851.54,3481 5849.74,3481C5847.33,3481 5845.65,3481.83 5844.72,3483.49C5843.79,3485.14 5843.32,3487.59 5843.32,3490.84L5843.32,3520.13C5843.32,3526.27 5845.46,3529.38 5849.74,3529.45C5851.74,3529.45 5853.26,3528.72 5854.3,3527.28C5855.33,3525.83 5855.85,3523.79 5855.85,3521.17L5855.85,3518.99L5870.65,3518.99L5870.65,3521.27C5870.65,3526.03 5869.72,3530 5867.86,3533.18C5865.99,3536.35 5863.46,3538.73 5860.25,3540.32C5857.04,3541.91 5853.36,3542.7 5849.23,3542.7Z" style="fill-rule:nonzero;"/>
                    <path d="M5898.4,3541.87C5884.8,3541.87 5878,3535.76 5878,3523.55L5878,3468.68L5891.98,3468.68L5891.98,3522.62C5891.98,3527.1 5894.12,3529.35 5898.4,3529.35L5898.6,3529.35L5898.6,3541.87L5898.4,3541.87Z" style="fill-rule:nonzero;"/>
                    <path d="M5916.82,3542.7C5912.13,3542.7 5908.61,3541.16 5906.26,3538.09C5903.92,3535.02 5902.74,3530.69 5902.74,3525.1C5902.74,3519.72 5904.4,3515.61 5907.71,3512.78C5911.02,3509.95 5915.72,3508.54 5921.79,3508.54L5925.2,3508.54L5925.2,3501.91C5925.2,3500.39 5924.86,3499.2 5924.17,3498.34C5923.48,3497.48 5922.48,3497.05 5921.17,3497.05C5919.99,3497.05 5919.03,3497.43 5918.27,3498.19C5917.51,3498.95 5917.13,3500.08 5917.13,3501.6L5917.13,3502.43L5904.19,3502.43L5904.19,3502.22C5904.19,3496.36 5905.81,3491.96 5909.06,3489.03C5912.3,3486.09 5916.48,3484.63 5921.58,3484.63C5927.17,3484.63 5931.52,3486.3 5934.62,3489.65C5937.73,3492.99 5939.28,3497.46 5939.28,3503.05L5939.28,3541.87L5926.24,3541.87L5926.24,3537.32C5924.52,3539.39 5923.05,3540.8 5921.84,3541.56C5920.63,3542.32 5918.96,3542.7 5916.82,3542.7ZM5916.72,3524.48C5916.72,3528.55 5918.17,3530.59 5921.07,3530.59C5922.24,3530.59 5923.22,3530.05 5924.02,3528.98C5924.81,3527.91 5925.2,3526.51 5925.2,3524.79L5925.2,3518.16L5923.55,3518.16C5921.2,3518.16 5919.48,3518.65 5918.37,3519.61C5917.27,3520.58 5916.72,3522.2 5916.72,3524.48Z" style="fill-rule:nonzero;"/>
                    <path d="M5963.92,3542.7C5958.26,3542.7 5953.81,3541.15 5950.57,3538.04C5947.32,3534.93 5945.7,3530.66 5945.7,3525.2L5945.7,3524.58L5959.16,3524.58L5959.16,3525.2C5959.16,3529.14 5960.82,3531.11 5964.13,3531.11C5965.71,3531.11 5966.85,3530.64 5967.54,3529.71C5968.23,3528.78 5968.58,3527.52 5968.58,3525.93C5968.58,3523.45 5966.96,3521.48 5963.71,3520.03L5957.5,3517.23C5953.02,3515.23 5949.96,3512.99 5948.34,3510.51C5946.72,3508.02 5945.91,3504.88 5945.91,3501.09C5945.91,3497.91 5946.67,3495.08 5948.19,3492.6C5949.7,3490.11 5951.79,3488.16 5954.45,3486.75C5957.11,3485.33 5960.19,3484.63 5963.71,3484.63C5967.23,3484.63 5970.34,3485.35 5973.03,3486.8C5975.72,3488.25 5977.81,3490.23 5979.29,3492.75C5980.78,3495.27 5981.52,3498.19 5981.52,3501.5L5981.52,3502.43L5967.85,3502.43L5967.85,3501.81C5967.85,3499.81 5967.44,3498.36 5966.61,3497.46C5965.78,3496.57 5964.78,3496.12 5963.61,3496.12C5960.71,3496.12 5959.26,3497.6 5959.26,3500.57C5959.26,3501.95 5959.59,3503.03 5960.24,3503.83C5960.9,3504.62 5962.13,3505.4 5963.92,3506.16L5970.75,3509.26C5974.89,3511.06 5977.83,3513.25 5979.55,3515.84C5981.28,3518.42 5982.14,3521.75 5982.14,3525.83C5982.14,3530.66 5980.5,3534.68 5977.22,3537.89C5973.94,3541.09 5969.51,3542.7 5963.92,3542.7Z" style="fill-rule:nonzero;"/>
                    <path d="M6005.74,3542.7C6000.08,3542.7 5995.63,3541.15 5992.39,3538.04C5989.14,3534.93 5987.52,3530.66 5987.52,3525.2L5987.52,3524.58L6000.98,3524.58L6000.98,3525.2C6000.98,3529.14 6002.64,3531.11 6005.95,3531.11C6007.53,3531.11 6008.67,3530.64 6009.36,3529.71C6010.05,3528.78 6010.4,3527.52 6010.4,3525.93C6010.4,3523.45 6008.78,3521.48 6005.53,3520.03L5999.32,3517.23C5994.84,3515.23 5991.78,3512.99 5990.16,3510.51C5988.54,3508.02 5987.73,3504.88 5987.73,3501.09C5987.73,3497.91 5988.49,3495.08 5990.01,3492.6C5991.52,3490.11 5993.61,3488.16 5996.27,3486.75C5998.93,3485.33 6002.01,3484.63 6005.53,3484.63C6009.05,3484.63 6012.16,3485.35 6014.85,3486.8C6017.54,3488.25 6019.63,3490.23 6021.11,3492.75C6022.6,3495.27 6023.34,3498.19 6023.34,3501.5L6023.34,3502.43L6009.67,3502.43L6009.67,3501.81C6009.67,3499.81 6009.26,3498.36 6008.43,3497.46C6007.6,3496.57 6006.6,3496.12 6005.43,3496.12C6002.53,3496.12 6001.08,3497.6 6001.08,3500.57C6001.08,3501.95 6001.41,3503.03 6002.07,3503.83C6002.72,3504.62 6003.95,3505.4 6005.74,3506.16L6012.57,3509.26C6016.71,3511.06 6019.65,3513.25 6021.37,3515.84C6023.1,3518.42 6023.96,3521.75 6023.96,3525.83C6023.96,3530.66 6022.32,3534.68 6019.04,3537.89C6015.76,3541.09 6011.33,3542.7 6005.74,3542.7Z" style="fill-rule:nonzero;"/>
                    <path d="M6061.53,3541.87L6045.49,3468.68L6061.74,3468.68L6069.09,3521.37L6076.55,3468.68L6093,3468.68L6076.96,3541.87L6061.53,3541.87Z" style="fill-rule:nonzero;"/>
                    <path d="M6106.25,3542.7C6101.56,3542.7 6098.04,3541.16 6095.69,3538.09C6093.35,3535.02 6092.18,3530.69 6092.18,3525.1C6092.18,3519.72 6093.83,3515.61 6097.15,3512.78C6100.46,3509.95 6105.15,3508.54 6111.22,3508.54L6114.64,3508.54L6114.64,3501.91C6114.64,3500.39 6114.29,3499.2 6113.6,3498.34C6112.91,3497.48 6111.91,3497.05 6110.6,3497.05C6109.43,3497.05 6108.46,3497.43 6107.7,3498.19C6106.94,3498.95 6106.57,3500.08 6106.57,3501.6L6106.57,3502.43L6093.62,3502.43L6093.62,3502.22C6093.62,3496.36 6095.25,3491.96 6098.49,3489.03C6101.73,3486.09 6105.91,3484.63 6111.02,3484.63C6116.61,3484.63 6120.95,3486.3 6124.06,3489.65C6127.16,3492.99 6128.72,3497.46 6128.72,3503.05L6128.72,3541.87L6115.67,3541.87L6115.67,3537.32C6113.95,3539.39 6112.48,3540.8 6111.28,3541.56C6110.07,3542.32 6108.39,3542.7 6106.25,3542.7ZM6106.15,3524.48C6106.15,3528.55 6107.6,3530.59 6110.5,3530.59C6111.67,3530.59 6112.65,3530.05 6113.45,3528.98C6114.24,3527.91 6114.64,3526.51 6114.64,3524.79L6114.64,3518.16L6112.98,3518.16C6110.64,3518.16 6108.91,3518.65 6107.81,3519.61C6106.7,3520.58 6106.15,3522.2 6106.15,3524.48Z" style="fill-rule:nonzero;"/>
                    <path d="M6135.96,3541.87L6135.96,3485.45L6149.32,3485.45L6149.32,3490.73C6150.77,3488.39 6152.35,3486.75 6154.08,3485.82C6155.8,3484.89 6157.84,3484.42 6160.19,3484.42C6160.81,3484.42 6161.44,3484.45 6162.1,3484.52C6162.76,3484.59 6163.4,3484.7 6164.02,3484.83L6164.02,3499.74C6163.05,3499.33 6162.08,3499.03 6161.12,3498.86C6160.15,3498.69 6159.22,3498.6 6158.32,3498.6C6155.84,3498.6 6153.82,3499.41 6152.27,3501.03C6150.71,3502.66 6149.94,3504.95 6149.94,3507.92L6149.94,3541.87L6135.96,3541.87Z" style="fill-rule:nonzero;"/>
                    <path d="M6169.3,3541.87L6169.3,3485.45L6183.37,3485.45L6183.37,3541.87L6169.3,3541.87ZM6169.3,3479.24L6169.3,3468.68L6183.27,3468.68L6183.27,3479.24L6169.3,3479.24Z" style="fill-rule:nonzero;"/>
                    <path d="M6204.18,3542.7C6199.49,3542.7 6195.97,3541.16 6193.62,3538.09C6191.28,3535.02 6190.1,3530.69 6190.1,3525.1C6190.1,3519.72 6191.76,3515.61 6195.07,3512.78C6198.38,3509.95 6203.08,3508.54 6209.15,3508.54L6212.57,3508.54L6212.57,3501.91C6212.57,3500.39 6212.22,3499.2 6211.53,3498.34C6210.84,3497.48 6209.84,3497.05 6208.53,3497.05C6207.35,3497.05 6206.39,3497.43 6205.63,3498.19C6204.87,3498.95 6204.49,3500.08 6204.49,3501.6L6204.49,3502.43L6191.55,3502.43L6191.55,3502.22C6191.55,3496.36 6193.17,3491.96 6196.42,3489.03C6199.66,3486.09 6203.84,3484.63 6208.94,3484.63C6214.53,3484.63 6218.88,3486.3 6221.99,3489.65C6225.09,3492.99 6226.64,3497.46 6226.64,3503.05L6226.64,3541.87L6213.6,3541.87L6213.6,3537.32C6211.88,3539.39 6210.41,3540.8 6209.2,3541.56C6207.99,3542.32 6206.32,3542.7 6204.18,3542.7ZM6204.08,3524.48C6204.08,3528.55 6205.53,3530.59 6208.42,3530.59C6209.6,3530.59 6210.58,3530.05 6211.37,3528.98C6212.17,3527.91 6212.57,3526.51 6212.57,3524.79L6212.57,3518.16L6210.91,3518.16C6208.56,3518.16 6206.84,3518.65 6205.73,3519.61C6204.63,3520.58 6204.08,3522.2 6204.08,3524.48Z" style="fill-rule:nonzero;"/>
                    <path d="M6233.89,3541.87L6233.89,3485.45L6247.24,3485.45L6247.24,3489.28C6249.93,3486.18 6252.9,3484.63 6256.15,3484.63C6265.19,3484.63 6269.7,3490.35 6269.7,3501.81L6269.7,3541.87L6255.73,3541.87L6255.73,3501.81C6255.73,3500.29 6255.37,3499.15 6254.64,3498.39C6253.92,3497.64 6252.97,3497.26 6251.8,3497.26C6249.18,3497.26 6247.86,3498.77 6247.86,3501.81L6247.86,3541.87L6233.89,3541.87Z" style="fill-rule:nonzero;"/>
                    <path d="M6295.17,3542.7C6289.17,3542.7 6284.63,3541.09 6281.56,3537.89C6278.49,3534.68 6276.95,3529.38 6276.95,3521.99L6276.95,3505.43C6276.95,3498.05 6278.5,3492.74 6281.61,3489.49C6284.72,3486.25 6289.24,3484.63 6295.17,3484.63C6300.9,3484.63 6305.26,3486.16 6308.27,3489.23C6311.27,3492.3 6312.77,3496.95 6312.77,3503.16L6312.77,3505.54L6299.31,3505.54L6299.31,3503.36C6299.31,3499.29 6297.93,3497.26 6295.17,3497.26C6292.34,3497.26 6290.93,3499.84 6290.93,3505.02L6290.93,3522.41C6290.93,3527.59 6292.31,3530.17 6295.07,3530.17C6296.45,3530.17 6297.5,3529.67 6298.22,3528.67C6298.95,3527.67 6299.31,3526.07 6299.31,3523.86L6299.31,3521.99L6312.77,3521.99L6312.77,3523.86C6312.77,3530.21 6311.27,3534.93 6308.27,3538.04C6305.26,3541.15 6300.9,3542.7 6295.17,3542.7Z" style="fill-rule:nonzero;"/>
                    <path d="M6338.13,3542.7C6332.4,3542.7 6327.93,3540.99 6324.72,3537.57C6321.52,3534.16 6319.91,3528.28 6319.91,3519.93L6319.91,3507.61C6319.91,3499.53 6321.38,3493.68 6324.31,3490.06C6327.24,3486.44 6331.75,3484.63 6337.82,3484.63C6343.68,3484.63 6348.24,3486.47 6351.48,3490.16C6354.73,3493.86 6356.35,3499.67 6356.35,3507.61L6356.35,3518.79L6333.89,3518.79L6333.89,3523.45C6333.89,3525.58 6334.23,3527.28 6334.92,3528.52C6335.61,3529.76 6336.65,3530.38 6338.03,3530.38C6340.92,3530.38 6342.37,3528.45 6342.37,3524.58L6342.37,3523.96L6355.83,3523.96L6355.83,3524.69C6355.83,3530.69 6354.31,3535.19 6351.28,3538.2C6348.24,3541.2 6343.86,3542.7 6338.13,3542.7ZM6333.89,3508.74L6342.27,3508.74L6342.27,3505.12C6342.27,3502.36 6341.94,3500.36 6341.29,3499.12C6340.63,3497.88 6339.54,3497.26 6338.03,3497.26C6335.27,3497.26 6333.89,3499.84 6333.89,3505.02L6333.89,3508.74Z" style="fill-rule:nonzero;"/>
                    <path d="M6400.76,3541.87L6400.76,3468.68L6420.84,3468.68C6428.15,3468.68 6433.38,3470.26 6436.52,3473.39C6439.66,3476.53 6441.23,3481.62 6441.23,3488.66C6441.23,3492.18 6440.7,3495.17 6439.63,3497.62C6438.56,3500.07 6436.61,3501.98 6433.78,3503.36C6436.88,3504.95 6438.9,3507.11 6439.83,3509.83C6440.77,3512.56 6441.23,3516.06 6441.23,3520.34C6441.23,3525.51 6440.57,3529.67 6439.26,3532.81C6437.95,3535.95 6435.81,3538.25 6432.85,3539.7C6429.88,3541.15 6425.88,3541.87 6420.84,3541.87L6400.76,3541.87ZM6415.45,3528.62L6419.08,3528.62C6421.91,3528.62 6423.84,3527.95 6424.88,3526.6C6425.91,3525.26 6426.43,3522.79 6426.43,3519.2C6426.43,3515.96 6425.89,3513.61 6424.82,3512.16C6423.75,3510.71 6421.84,3509.99 6419.08,3509.99L6415.45,3509.99L6415.45,3528.62ZM6415.45,3497.26L6419.28,3497.26C6421.91,3497.26 6423.75,3496.7 6424.82,3495.6C6425.89,3494.49 6426.43,3492.49 6426.43,3489.6C6426.43,3486.76 6425.89,3484.78 6424.82,3483.64C6423.75,3482.5 6421.91,3481.93 6419.28,3481.93L6415.45,3481.93L6415.45,3497.26Z" style="fill-rule:nonzero;"/>
                    <path d="M6466.28,3542.7C6461.52,3542.7 6457.85,3541.96 6455.26,3540.47C6452.67,3538.99 6450.88,3536.75 6449.87,3533.74C6448.87,3530.74 6448.37,3527 6448.37,3522.51L6448.37,3485.45L6462.35,3485.45L6462.35,3520.65C6462.35,3524.24 6462.52,3526.72 6462.86,3528.1C6463.21,3529.48 6464.35,3530.17 6466.28,3530.17C6468.28,3530.17 6469.44,3529.52 6469.75,3528.21C6470.06,3526.89 6470.22,3524.79 6470.22,3521.89L6470.22,3485.45L6484.19,3485.45L6484.19,3522.51C6484.19,3527.21 6483.69,3531.04 6482.69,3534C6481.69,3536.97 6479.89,3539.16 6477.31,3540.58C6474.72,3541.99 6471.04,3542.7 6466.28,3542.7Z" style="fill-rule:nonzero;"/>
                    <path d="M6491.85,3541.87L6491.85,3485.45L6505.93,3485.45L6505.93,3541.87L6491.85,3541.87ZM6491.85,3479.24L6491.85,3468.68L6505.82,3468.68L6505.82,3479.24L6491.85,3479.24Z" style="fill-rule:nonzero;"/>
                    <path d="M6533.88,3541.87C6520.28,3541.87 6513.49,3535.76 6513.49,3523.55L6513.49,3468.68L6527.46,3468.68L6527.46,3522.62C6527.46,3527.1 6529.6,3529.35 6533.88,3529.35L6534.08,3529.35L6534.08,3541.87L6533.88,3541.87Z" style="fill-rule:nonzero;"/>
                    <path d="M6552.41,3542.7C6548.4,3542.7 6545.16,3541.27 6542.68,3538.4C6540.19,3535.54 6538.95,3531 6538.95,3524.79L6538.95,3502.53C6538.95,3496.25 6540.14,3491.7 6542.52,3488.87C6544.9,3486.04 6548.09,3484.63 6552.1,3484.63C6554.03,3484.63 6555.81,3485.06 6557.43,3485.92C6559.05,3486.78 6560.27,3488.01 6561.1,3489.6L6561.1,3468.68L6575.08,3468.68L6575.08,3541.87L6561.72,3541.87L6561.72,3538.25C6558.96,3541.22 6555.86,3542.7 6552.41,3542.7ZM6552.92,3522.41C6552.92,3525.17 6553.27,3527.15 6553.96,3528.36C6554.65,3529.57 6555.75,3530.17 6557.27,3530.17C6560.03,3530.17 6561.41,3527.59 6561.41,3522.41L6561.41,3505.02C6561.41,3502.19 6561.07,3500.19 6560.38,3499.01C6559.69,3497.84 6558.62,3497.26 6557.17,3497.26C6555.65,3497.26 6554.56,3497.86 6553.91,3499.07C6553.25,3500.27 6552.92,3502.26 6552.92,3505.02L6552.92,3522.41Z" style="fill-rule:nonzero;"/>
                    <path d="M6600.44,3542.7C6594.71,3542.7 6590.24,3540.99 6587.03,3537.57C6583.82,3534.16 6582.22,3528.28 6582.22,3519.93L6582.22,3507.61C6582.22,3499.53 6583.69,3493.68 6586.62,3490.06C6589.55,3486.44 6594.05,3484.63 6600.13,3484.63C6605.99,3484.63 6610.55,3486.47 6613.79,3490.16C6617.03,3493.86 6618.66,3499.67 6618.66,3507.61L6618.66,3518.79L6596.19,3518.79L6596.19,3523.45C6596.19,3525.58 6596.54,3527.28 6597.23,3528.52C6597.92,3529.76 6598.95,3530.38 6600.33,3530.38C6603.23,3530.38 6604.68,3528.45 6604.68,3524.58L6604.68,3523.96L6618.14,3523.96L6618.14,3524.69C6618.14,3530.69 6616.62,3535.19 6613.58,3538.2C6610.55,3541.2 6606.17,3542.7 6600.44,3542.7ZM6596.19,3508.74L6604.58,3508.74L6604.58,3505.12C6604.58,3502.36 6604.25,3500.36 6603.6,3499.12C6602.94,3497.88 6601.85,3497.26 6600.33,3497.26C6597.57,3497.26 6596.19,3499.84 6596.19,3505.02L6596.19,3508.74Z" style="fill-rule:nonzero;"/>
                    <path d="M6625.9,3541.87L6625.9,3485.45L6639.26,3485.45L6639.26,3490.73C6640.7,3488.39 6642.29,3486.75 6644.02,3485.82C6645.74,3484.89 6647.78,3484.42 6650.12,3484.42C6650.75,3484.42 6651.39,3484.45 6652.04,3484.52C6652.7,3484.59 6653.33,3484.7 6653.95,3484.83L6653.95,3499.74C6652.99,3499.33 6652.02,3499.03 6651.06,3498.86C6650.09,3498.69 6649.16,3498.6 6648.26,3498.6C6645.78,3498.6 6643.76,3499.41 6642.21,3501.03C6640.65,3502.66 6639.88,3504.95 6639.88,3507.92L6639.88,3541.87L6625.9,3541.87Z" style="fill-rule:nonzero;"/>
                </g>
            </g>
        </g>
    </g>
    <defs>
        <radialGradient id="_Radial1" cx="0" cy="0" r="1" gradientUnits="userSpaceOnUse" gradientTransform="matrix(1,0,0,-1,0,0.154474)"><stop offset="0" style="stop-color:rgb(255,251,248);stop-opacity:1"/><stop offset="0" style="stop-color:rgb(255,251,248);stop-opacity:1"/><stop offset="0.24" style="stop-color:rgb(255,197,7);stop-opacity:1"/><stop offset="0.7" style="stop-color:rgb(255,0,113);stop-opacity:1"/><stop offset="0.99" style="stop-color:rgb(150,53,240);stop-opacity:1"/><stop offset="1" style="stop-color:rgb(150,53,240);stop-opacity:1"/></radialGradient>
        <radialGradient id="_Radial2" cx="0" cy="0" r="1" gradientUnits="userSpaceOnUse" gradientTransform="matrix(1,0,0,-1,0,-0.00653857)"><stop offset="0" style="stop-color:rgb(255,251,248);stop-opacity:1"/><stop offset="0" style="stop-color:rgb(255,251,248);stop-opacity:1"/><stop offset="0.24" style="stop-color:rgb(255,197,7);stop-opacity:1"/><stop offset="0.7" style="stop-color:rgb(255,0,113);stop-opacity:1"/><stop offset="0.99" style="stop-color:rgb(150,53,240);stop-opacity:1"/><stop offset="1" style="stop-color:rgb(150,53,240);stop-opacity:1"/></radialGradient>
        <radialGradient id="_Radial3" cx="0" cy="0" r="1" gradientUnits="userSpaceOnUse" gradientTransform="matrix(1,0,0,-1,0,1.40665)"><stop offset="0" style="stop-color:rgb(255,251,248);stop-opacity:1"/><stop offset="0" style="stop-color:rgb(255,251,248);stop-opacity:1"/><stop offset="0.24" style="stop-color:rgb(255,197,7);stop-opacity:1"/><stop offset="0.7" style="stop-color:rgb(255,0,113);stop-opacity:1"/><stop offset="0.99" style="stop-color:rgb(150,53,240);stop-opacity:1"/><stop offset="1" style="stop-color:rgb(150,53,240);stop-opacity:1"/></radialGradient>
        <radialGradient id="_Radial4" cx="0" cy="0" r="1" gradientUnits="userSpaceOnUse" gradientTransform="matrix(1,0,0,-1,0,1.08786)"><stop offset="0" style="stop-color:rgb(255,251,248);stop-opacity:1"/><stop offset="0" style="stop-color:rgb(255,251,248);stop-opacity:1"/><stop offset="0.24" style="stop-color:rgb(255,197,7);stop-opacity:1"/><stop offset="0.7" style="stop-color:rgb(255,0,113);stop-opacity:1"/><stop offset="0.99" style="stop-color:rgb(150,53,240);stop-opacity:1"/><stop offset="1" style="stop-color:rgb(150,53,240);stop-opacity:1"/></radialGradient>
    </defs>
</svg>
